<svg width="22" height="25" viewBox="0 0 22 25" fill="none" xmlns="http://www.w3.org/2000/svg">
<path d="M4.33326 24.6206C3.59992 24.6206 2.97237 24.3597 2.45059 23.8379C1.92881 23.3162 1.66748 22.6882 1.66659 21.9539V4.62061C1.28881 4.62061 0.972368 4.49261 0.717257 4.23661C0.462146 3.98061 0.334145 3.66416 0.333257 3.28727C0.332368 2.91038 0.460368 2.59394 0.717257 2.33794C0.974146 2.08194 1.29059 1.95394 1.66659 1.95394H6.99992C6.99992 1.57616 7.12792 1.25972 7.38392 1.00461C7.63992 0.749494 7.95637 0.621494 8.33326 0.620605H13.6666C14.0444 0.620605 14.3613 0.748606 14.6173 1.00461C14.8733 1.26061 15.0008 1.57705 14.9999 1.95394H20.3333C20.711 1.95394 21.0279 2.08194 21.2839 2.33794C21.5399 2.59394 21.6675 2.91038 21.6666 3.28727C21.6657 3.66416 21.5377 3.98105 21.2826 4.23794C21.0275 4.49483 20.711 4.62238 20.3333 4.62061V21.9539C20.3333 22.6873 20.0724 23.3153 19.5506 23.8379C19.0288 24.3606 18.4008 24.6215 17.6666 24.6206H4.33326ZM17.6666 4.62061H4.33326V21.9539H17.6666V4.62061ZM8.33326 19.2873C8.71103 19.2873 9.02792 19.1593 9.28392 18.9033C9.53992 18.6473 9.66748 18.3308 9.66659 17.9539V8.6206C9.66659 8.24283 9.53859 7.92638 9.28259 7.67127C9.02659 7.41616 8.71015 7.28816 8.33326 7.28727C7.95637 7.28638 7.63992 7.41438 7.38392 7.67127C7.12792 7.92816 6.99992 8.24461 6.99992 8.6206V17.9539C6.99992 18.3317 7.12792 18.6486 7.38392 18.9046C7.63992 19.1606 7.95637 19.2882 8.33326 19.2873ZM13.6666 19.2873C14.0444 19.2873 14.3613 19.1593 14.6173 18.9033C14.8733 18.6473 15.0008 18.3308 14.9999 17.9539V8.6206C14.9999 8.24283 14.8719 7.92638 14.6159 7.67127C14.3599 7.41616 14.0435 7.28816 13.6666 7.28727C13.2897 7.28638 12.9733 7.41438 12.7173 7.67127C12.4613 7.92816 12.3333 8.24461 12.3333 8.6206V17.9539C12.3333 18.3317 12.4613 18.6486 12.7173 18.9046C12.9733 19.1606 13.2897 19.2882 13.6666 19.2873Z" fill="#E61D1D"/>
</svg>
