<svg width="30" height="30" viewBox="0 0 30 30" fill="none" xmlns="http://www.w3.org/2000/svg">
<path d="M14 2.87061H4.08333C3.33189 2.87061 2.61122 3.16912 2.07986 3.70047C1.54851 4.23182 1.25 4.95249 1.25 5.70394V25.5373C1.25 26.2887 1.54851 27.0094 2.07986 27.5407C2.61122 28.0721 3.33189 28.3706 4.08333 28.3706H23.9167C24.6681 28.3706 25.3888 28.0721 25.9201 27.5407C26.4515 27.0094 26.75 26.2887 26.75 25.5373V15.6206" stroke="#858585" stroke-width="2" stroke-linecap="round" stroke-linejoin="round"/>
<path d="M23.0312 2.33919C23.5948 1.7756 24.3592 1.45898 25.1562 1.45898C25.9533 1.45898 26.7176 1.7756 27.2812 2.33919C27.8448 2.90277 28.1614 3.66716 28.1614 4.46419C28.1614 5.26122 27.8448 6.0256 27.2812 6.58919L14.5128 19.359C14.1764 19.6951 13.7608 19.9411 13.3044 20.0744L9.2343 21.2644C9.1124 21.3 8.98318 21.3021 8.86017 21.2706C8.73717 21.2391 8.62489 21.1751 8.5351 21.0853C8.44531 20.9955 8.38131 20.8832 8.3498 20.7602C8.31828 20.6372 8.32042 20.508 8.35597 20.3861L9.54597 16.316C9.67988 15.8599 9.92639 15.4449 10.2628 15.109L23.0312 2.33919Z" stroke="#858585" stroke-width="2" stroke-linecap="round" stroke-linejoin="round"/>
</svg>
